<?xml version="1.0" encoding="UTF-8"?>
<svg id="Capa_2" data-name="Capa 2" xmlns="http://www.w3.org/2000/svg" viewBox="0 0 147.17 56">
  <defs>
    <style>
      .cls-1 {
        fill: #fff;
      }
    </style>
  </defs>
  <g id="Capa_3" data-name="Capa 3">
    <g id="Capa_1-2" data-name="Capa 1">
      <g>
        <g>
          <g>
            <path class="cls-1" d="M19.22,54.48c0,1.39.97,1.91,2.14,1.19l11.21-6.8c1.17-.72,2.14-2.44,2.14-3.8v-12.68c0-1.39-1-2-2.22-1.36l-11.04,5.74c-1.22.64-2.22,2.27-2.22,3.66v14.04Z"/>
            <path class="cls-1" d="M15.48,54.48c0,1.39-.97,1.91-2.14,1.19l-11.21-6.8c-1.17-.72-2.14-2.44-2.14-3.8v-12.68c0-1.39,1-2,2.22-1.36l11.04,5.74c1.22.64,2.22,2.27,2.22,3.66v14.04Z"/>
            <path class="cls-1" d="M19.59,18.45c-1.22-.64-3.22-.64-4.44,0l-12.9,6.74c-1.22.64-1.22,1.69,0,2.33l12.9,6.74c1.22.64,3.22.64,4.44,0l12.9-6.74c1.22-.64,1.22-1.69,0-2.33,0,0-12.9-6.74-12.9-6.74Z"/>
          </g>
          <rect class="cls-1" y="6.08" width="46.63" height="2.86"/>
          <path class="cls-1" d="M27.91.03v16.26c0,.92.75,1.66,1.66,1.66h1.14c.36,0,1.64.19,2.36,1.41.03.06.06.11.08.14l1.55,2.66,1.66-2.83c.72-1.22,2-1.39,2.36-1.41h1.14c.92,0,1.66-.75,1.66-1.66V0h-13.59l-.03.03Z"/>
        </g>
        <g>
          <polygon class="cls-1" points="69.94 17.95 63.17 17.95 57.84 24.14 57.84 17.95 51.93 17.95 51.93 35.79 57.84 35.79 57.84 31.6 59.56 29.66 63.28 35.79 70.32 35.79 63.58 25.13 69.94 17.95"/>
          <polygon class="cls-1" points="82.09 24.83 78.51 17.95 72.63 17.95 79.12 30.38 79.12 35.79 85.03 35.79 85.03 30.27 91.41 17.95 85.56 17.95 82.09 24.83"/>
          <path class="cls-1" d="M111.02,19.64c-1.28-1.11-3.08-1.66-5.41-1.66h-11.76l3.38,3.8v14.04h5.91v-4.63h2.47c2.33,0,4.13-.61,5.41-1.8s1.91-2.89,1.91-5.02-.64-3.61-1.91-4.72ZM106.83,26.13c-.33.39-.83.58-1.5.58h-2.16v-4.24h2.16c.64,0,1.14.19,1.47.55.36.36.53.89.53,1.55s-.17,1.22-.53,1.58l.03-.03Z"/>
        </g>
        <g>
          <path class="cls-1" d="M59.26,41.2c.64.5.94,1.17.94,2.03s-.17,1.19-.53,1.64c-.36.44-.86.72-1.5.86.8.11,1.41.42,1.86.92s.67,1.11.67,1.89-.36,1.66-1.05,2.19-1.66.8-2.91.8h-4.72v-11.04h4.63c1.11,0,2,.25,2.61.72h0ZM53.24,45.22h3.33c.75,0,1.33-.17,1.72-.47.42-.31.61-.75.61-1.33s-.19-1-.61-1.3c-.42-.31-1-.44-1.72-.44h-3.33v3.55ZM53.24,50.27h3.33c.92,0,1.61-.17,2.11-.5s.75-.83.75-1.47-.25-1.05-.75-1.39-1.19-.5-2.08-.5h-3.33v3.86h-.03Z"/>
          <path class="cls-1" d="M63.94,40.2c.17.17.22.36.22.61s-.08.44-.22.61c-.17.17-.33.25-.58.25s-.42-.08-.58-.25c-.14-.17-.22-.36-.22-.61s.08-.44.22-.61c.14-.17.33-.25.58-.25s.42.08.58.25ZM62.78,51.49v-8.29h1.22v8.29h-1.22Z"/>
          <path class="cls-1" d="M72.21,43.67c.64.36,1.14.83,1.5,1.47s.53,1.36.53,2.16-.17,1.55-.53,2.19c-.36.64-.86,1.14-1.5,1.5-.64.36-1.36.53-2.16.53s-1.53-.17-2.16-.53c-.64-.36-1.14-.86-1.5-1.5-.36-.64-.53-1.36-.53-2.19s.17-1.53.53-2.16.86-1.14,1.5-1.47c.64-.36,1.36-.53,2.16-.53s1.53.17,2.16.53ZM68.49,44.66c-.44.25-.8.61-1.05,1.08s-.39,1-.39,1.58.14,1.14.39,1.61.61.83,1.05,1.11c.44.28.97.39,1.53.39s1.08-.14,1.53-.39c.44-.28.8-.64,1.05-1.11s.39-1,.39-1.61-.14-1.14-.39-1.58c-.25-.47-.61-.83-1.05-1.08-.47-.25-.97-.39-1.53-.39s-1.08.14-1.53.39Z"/>
          <path class="cls-1" d="M77.23,40.2c.17.17.22.36.22.61s-.08.44-.22.61-.33.25-.58.25-.42-.08-.58-.25c-.14-.17-.22-.36-.22-.61s.08-.44.22-.61c.14-.17.33-.25.58-.25s.42.08.58.25ZM76.07,51.49v-8.29h1.22v8.29h-1.22Z"/>
          <path class="cls-1" d="M86.72,44c.55.58.83,1.36.83,2.36v5.13h-1.22v-4.8c0-.72-.19-1.3-.61-1.72s-1-.61-1.72-.61c-.8,0-1.47.25-1.94.75-.5.47-.78,1.14-.83,1.91v4.47h-1.22v-8.29h1.22v1.83c.58-1.22,1.64-1.86,3.22-1.86,1,0,1.78.28,2.33.86l-.06-.03Z"/>
          <path class="cls-1" d="M97.21,50.6c0,.8-.17,1.5-.53,2.11-.36.61-.83,1.05-1.47,1.39s-1.36.47-2.19.47c-1.22,0-2.36-.42-3.41-1.19l.55-.94c.42.36.86.61,1.3.78s.94.25,1.47.28c.92,0,1.64-.25,2.16-.78.55-.53.83-1.19.83-2.05v-1.25c-.31.55-.69,1-1.22,1.28-.53.31-1.14.44-1.83.44s-1.39-.17-1.97-.5-1.03-.8-1.33-1.41c-.33-.61-.47-1.3-.47-2.08s.17-1.44.47-2.05.75-1.05,1.33-1.41c.55-.33,1.22-.5,1.94-.5s1.3.14,1.83.44.94.72,1.25,1.28v-1.69h1.22v7.43l.06-.03ZM94.6,49.69c.44-.25.78-.61,1-1.05.25-.44.36-.94.36-1.5s-.11-1.08-.36-1.53-.58-.8-1-1.05c-.44-.25-.92-.39-1.47-.39s-1.03.14-1.47.39c-.44.25-.78.61-1.03,1.05-.25.44-.36.94-.36,1.53s.11,1.05.36,1.5c.25.44.58.8,1.03,1.05.44.25.92.39,1.47.39s1.03-.14,1.47-.39Z"/>
          <path class="cls-1" d="M105.92,44.39c.67.83.97,1.97.89,3.41h-6.77c.11.8.42,1.44.97,1.94.55.47,1.22.72,2.03.72s1-.08,1.41-.28c.44-.17.8-.44,1.14-.78l.67.72c-.39.44-.89.78-1.47,1.03-.58.25-1.19.36-1.89.36s-1.53-.17-2.16-.53c-.64-.36-1.11-.83-1.47-1.47-.33-.64-.53-1.36-.53-2.19s.17-1.55.53-2.19c.36-.64.83-1.14,1.47-1.47.64-.36,1.36-.53,2.14-.53,1.3,0,2.27.42,2.94,1.25h.11ZM104.89,44.91c-.5-.47-1.17-.69-1.97-.69s-1.44.25-1.97.72c-.53.47-.83,1.11-.92,1.89h5.66c-.03-.8-.31-1.44-.8-1.89v-.03Z"/>
          <path class="cls-1" d="M115.38,44c.55.58.83,1.36.83,2.36v5.13h-1.22v-4.8c0-.72-.19-1.3-.61-1.72s-1-.61-1.72-.61c-.8,0-1.47.25-1.94.75-.5.47-.78,1.14-.83,1.91v4.47h-1.22v-8.29h1.22v1.83c.58-1.22,1.64-1.86,3.22-1.86,1,0,1.78.28,2.33.86l-.06-.03Z"/>
          <path class="cls-1" d="M119.79,40.2c.17.17.22.36.22.61s-.08.44-.22.61c-.17.17-.33.25-.58.25s-.42-.08-.58-.25c-.14-.17-.22-.36-.22-.61s.08-.44.22-.61c.14-.17.33-.25.58-.25s.42.08.58.25ZM118.62,51.49v-8.29h1.22v8.29h-1.22Z"/>
          <path class="cls-1" d="M128.75,44.39c.67.83.97,1.97.89,3.41h-6.77c.11.8.42,1.44.97,1.94.55.47,1.22.72,2.03.72s1-.08,1.41-.28c.44-.17.8-.44,1.14-.78l.67.72c-.39.44-.89.78-1.47,1.03-.58.25-1.19.36-1.89.36s-1.53-.17-2.16-.53c-.64-.36-1.11-.83-1.47-1.47-.33-.64-.53-1.36-.53-2.19s.17-1.55.53-2.19c.36-.64.83-1.14,1.47-1.47.64-.36,1.36-.53,2.14-.53,1.3,0,2.27.42,2.94,1.25h.11ZM127.75,44.91c-.5-.47-1.17-.69-1.97-.69s-1.44.25-1.97.72c-.53.47-.83,1.11-.92,1.89h5.66c-.03-.8-.31-1.44-.8-1.89v-.03Z"/>
          <path class="cls-1" d="M133.85,43.64c.5-.33,1.11-.5,1.8-.5v1.25c-.86,0-1.55.22-2.08.72-.53.5-.83,1.14-.89,1.97v4.41h-1.22v-8.29h1.22v1.83c.28-.61.67-1.05,1.17-1.39h0Z"/>
          <path class="cls-1" d="M137.93,41.81h-1.17l1.89-2.14,1.25.61-1.94,1.55-.03-.03ZM136.99,51.49v-8.29h1.22v8.29h-1.22Z"/>
          <path class="cls-1" d="M146,50.21c-.67.89-1.66,1.33-3.02,1.33s-1.05-.11-1.47-.33-.75-.53-1-.92c-.22-.39-.36-.83-.36-1.3,0-.72.28-1.3.83-1.72s1.3-.64,2.27-.67h2.72v-.47c0-.61-.19-1.11-.55-1.44-.39-.33-.92-.5-1.66-.5s-1.72.31-2.64.94l-.53-.89c.58-.39,1.14-.67,1.64-.86.5-.17,1.08-.28,1.75-.28,1.03,0,1.8.25,2.36.75s.83,1.19.83,2.11v5.49h-1.19v-1.28l.03.03ZM145.01,49.96c.5-.33.83-.78.97-1.36v-1h-2.58c-1.41,0-2.11.44-2.11,1.33s.17.83.53,1.11c.33.28.8.42,1.39.42s1.3-.17,1.8-.5h0Z"/>
        </g>
      </g>
    </g>
  </g>
</svg>