<?xml version="1.0" encoding="UTF-8"?>
<svg id="Capa_2" data-name="Capa 2" xmlns="http://www.w3.org/2000/svg" viewBox="0 0 46.63 56">
  <defs>
    <style>
      .cls-1 {
        fill: #25767d;
      }

      .cls-2 {
        fill: #34a3ae;
      }

      .cls-3 {
        fill: #8bcfe4;
      }
    </style>
  </defs>
  <g id="Capa_3" data-name="Capa 3">
    <g>
      <g>
        <path class="cls-1" d="M19.22,54.48c0,1.39.97,1.91,2.14,1.19l11.21-6.8c1.17-.72,2.14-2.44,2.14-3.8v-12.68c0-1.39-1-2-2.22-1.36l-11.04,5.74c-1.22.64-2.22,2.27-2.22,3.66v14.04Z"/>
        <path class="cls-2" d="M15.48,54.48c0,1.39-.97,1.91-2.14,1.19l-11.21-6.8c-1.17-.72-2.14-2.44-2.14-3.8v-12.68c0-1.39,1-2,2.22-1.36l11.04,5.74c1.22.64,2.22,2.27,2.22,3.66v14.04Z"/>
        <path class="cls-3" d="M19.59,18.45c-1.22-.64-3.22-.64-4.44,0l-12.9,6.74c-1.22.64-1.22,1.69,0,2.33l12.9,6.74c1.22.64,3.22.64,4.44,0l12.9-6.74c1.22-.64,1.22-1.69,0-2.33,0,0-12.9-6.74-12.9-6.74Z"/>
      </g>
      <rect class="cls-2" y="6.08" width="46.63" height="2.86"/>
      <path class="cls-2" d="M27.91.03v16.26c0,.92.75,1.66,1.66,1.66h1.14c.36,0,1.64.19,2.36,1.41.03.06.06.11.08.14l1.55,2.66,1.66-2.83c.72-1.22,2-1.39,2.36-1.41h1.14c.92,0,1.66-.75,1.66-1.66V0h-13.59l-.03.03Z"/>
    </g>
  </g>
</svg>